<svg xmlns="http://www.w3.org/2000/svg" viewBox="0 0 1352.27 1269.18" shape-rendering="geometricPrecision" text-rendering="geometricPrecision" image-rendering="optimizeQuality" fill-rule="evenodd" clip-rule="evenodd"><path fill="#007EA7" d="M847.2 1077.21c-39.81 44.12-85.73 87.91-137.62 131.44 14.09-1.9 28.17-4.19 41.88-6.85 37.69-7.62 73.85-18.65 108.88-33.88a653.17 653.17 0 0026.52-12.12c6.55 8.38 13.79 15.63 21.59 21.8 8.51 6.73 17.55 12.04 27.02 16.01-17.35 9.3-35.17 17.85-53.43 25.7-38.83 16.75-78.8 28.93-119.91 37.31-41.11 8.37-83.75 12.56-127.53 12.56s-86.03-4.19-127.53-12.56c-40.74-8-79.94-20.18-118.39-36.54-.38 0-1.14-.38-1.52-.77-38.07-16.37-74.23-36.16-108.11-58.62-33.88-22.46-65.1-48.34-93.65-76.89-28.93-28.55-54.44-59.77-76.9-93.65-22.84-33.88-42.25-70.05-58.62-108.11-16.75-38.83-28.93-78.8-37.31-119.91C4.2 721.02.01 678.38.01 634.6s4.19-86.03 12.56-127.53c7.99-40.74 20.18-79.94 36.54-118.39 0-.38.38-1.14.76-1.52 16.37-38.45 36.17-74.23 58.62-108.11 22.46-33.88 48.35-65.1 76.9-93.65 28.55-28.93 59.77-54.44 93.65-76.89 33.88-22.84 70.04-42.26 108.11-58.62 38.83-16.75 78.8-28.93 119.91-37.31C548.17 4.21 590.81.02 634.59.02s86.03 4.19 127.53 12.56c40.74 8 79.94 20.18 118.39 36.54.38 0 1.14.38 1.52.77 38.07 16.37 74.23 36.16 108.11 58.62 33.88 22.46 65.1 48.34 93.65 76.89 28.93 28.55 54.44 59.77 76.89 93.65 22.84 33.88 42.26 70.05 58.63 108.11 16.75 38.83 28.93 78.8 37.31 119.91 4.75 23.32 8.15 47.13 10.21 71.36l-57.59-15.27c-1.78-15.19-4.11-30.17-7.05-45.05-7.61-37.69-18.65-73.85-33.88-108.87a595.403 595.403 0 00-31.98-64.33H950.56c33 56.47 56.74 112.62 71.22 168.56l-62.53-16.57c-16.29-50.21-40.86-100.85-73.79-151.99H662.38V448.2c-3.97 2.34-7.9 5.05-11.77 8.12l.03.04c-3.08 2.4-6.02 5.02-8.8 7.85-3.79 3.85-7.21 7.97-10.18 12.3-4.84 7.05-8.71 14.86-11.62 23.17-2.97 8.49-4.76 16.99-5.4 25.24-.54 7.05-.28 14.27.77 21.51.86 5.91 2.26 11.78 4.18 17.51l.51 1.52c.4 1.19.83 2.37 1.29 3.56.71 1.82 1.18 2.98 1.43 3.55l.24-.11L663 662.4h-.63v261.91h116.92l24.68 55.58h-141.6v195.67c62.17-51.05 115.56-102.58 160.01-154.21l24.82 55.88zm419.91.96a45.438 45.438 0 01-12.75 8.73c-4.87 2.22-10.02 3.56-15.14 3.97-5.65.46-11.39-.16-16.85-1.87a42.6 42.6 0 01-14.8-8.14l-122.08-103.57-41.89 102.92c-3.49 8.56-7.72 16.55-12.47 23.65-4.84 7.24-10.21 13.52-15.88 18.52-4.54 4-9.44 7.32-14.62 9.87-5.14 2.51-10.5 4.2-15.99 4.92-6.36.84-12.73.44-18.97-1.36-5.94-1.71-11.7-4.67-17.14-8.97-4.37-3.45-8.5-7.79-12.29-13.04-3.49-4.83-6.74-10.53-9.67-17.15-79.5-179.03-174.21-371.71-245.05-552.02-.9-2.37-1.54-4.86-1.91-7.36-.36-2.51-.45-5.06-.27-7.55.23-2.93.84-5.87 1.84-8.75.98-2.8 2.32-5.48 4.01-7.94.84-1.22 1.8-2.37 2.83-3.42.91-.93 1.9-1.78 2.93-2.55 1.99-1.58 4.09-2.9 6.24-3.95l.58-.26c2.1-.98 4.24-1.72 6.37-2.23l.97-.18c1.97-.41 3.96-.65 5.95-.72 2.26-.07 4.5.06 6.67.41.8.09 1.59.23 2.33.38 194.14 48.23 389.37 103.24 583.02 154.57 6.89 1.83 13.04 4.15 18.45 6.86 5.86 2.94 10.8 6.32 14.84 10.04 5.08 4.67 8.9 9.88 11.53 15.5 2.76 5.86 4.17 12.1 4.34 18.55v.1c.14 5.5-.66 11.02-2.32 16.46-1.67 5.48-4.19 10.84-7.43 15.98-4.07 6.43-9.4 12.72-15.73 18.59-6.16 5.71-13.39 11.13-21.43 16.01-31.82 18.65-63.47 38.49-95.05 57.64l121.63 104.25c4.43 3.81 7.9 8.35 10.36 13.28l.36.84a44.343 44.343 0 014.14 15.49c.43 5.44-.15 11.05-1.75 16.45a45.575 45.575 0 01-7.54 14.77c-18.62 23.12-49.85 63.16-70.38 82.27zm-31.9-39.98l58.89-69.07-143.06-122.62-.78-.75c-.71-.67-1.4-1.38-2.03-2.13-.83-.98-1.62-2.08-2.34-3.27-3.6-5.94-4.43-12.79-2.88-19.05 1.55-6.28 5.5-11.96 11.45-15.54 41.38-22.75 84.04-51.23 124.95-75.77 4.73-2.89 8.93-6 12.47-9.19 3.35-3.03 6.06-6.13 7.96-9.14.74-1.17 1.31-2.24 1.67-3.16-.83-.62-1.92-1.25-3.28-1.88-2.14-.99-4.79-1.92-7.99-2.77l-547.35-145.1 229.8 517.54c1.29 2.91 2.64 5.39 4.02 7.44l.31.5c.72 1.03 1.39 1.85 2.02 2.46.83-.48 1.8-1.21 2.87-2.15 2.66-2.35 5.28-5.5 7.73-9.28 2.59-3.98 5.02-8.72 7.18-14.03l55.02-135.19.52-1.08c.41-.92.84-1.75 1.29-2.49l.38-.58c.59-.92 1.25-1.81 1.98-2.66a25.208 25.208 0 0117.21-8.83c6.41-.52 13.02 1.42 18.33 5.92l143.66 121.88zm-675.24 170.46c-89.84-75.38-161.79-151.51-215.09-228.79H169.39c16.75 22.84 35.41 44.16 55.58 64.34 26.27 26.26 54.44 49.49 85.27 70.04 30.45 20.56 63.57 38.45 99.36 53.68.38.38.76.38 1.14.76 34.64 14.46 70.42 25.89 107.73 33.12 13.7 2.66 27.79 4.95 41.87 6.85h-.38zM132.85 924.29h176.64c-49.11-86.03-75.76-173.59-78.8-261.91H56.34c1.52 30.45 4.95 59.77 10.66 88.7 7.61 37.69 18.65 73.85 33.88 108.87 9.52 22.46 20.18 43.78 31.98 64.34zM56.34 606.8h175.49c6.47-86.8 35.41-173.97 86.8-261.9H132.86a595.403 595.403 0 00-31.98 64.33c-.38.38-.38.76-.76 1.14C85.65 445.01 74.23 480.79 67 518.1c-5.71 28.93-9.52 58.24-10.66 88.7zm112.68-317.48h185.39c52.91-76.14 122.58-152.65 209.37-229.55-15.61 1.9-30.83 4.19-45.68 7.23-37.69 7.61-73.85 18.65-108.88 33.88-35.4 15.23-68.52 33.12-99.36 53.68-30.83 20.56-59.01 43.78-85.27 70.04-20.18 20.18-38.83 41.5-55.58 64.33v.38zM705.39 59.77c87.18 76.9 156.84 153.41 209.37 229.55h185.39c-16.75-22.84-35.41-44.16-55.58-64.33-26.27-26.27-54.44-49.49-85.27-70.05-30.45-20.55-63.57-38.45-99.36-53.68-.38-.38-.76-.38-1.14-.76-34.64-14.46-70.42-25.88-107.73-33.12-15.23-3.05-30.45-5.33-45.68-7.23v-.38zm-43.01 36.16v193.39h184.25c-48.35-63.96-109.64-128.29-184.25-193.39zm-55.58 1079.6V979.86H413.04c49.87 65.48 114.58 130.96 193.76 195.67zm0-251.25V662.37H286.27c3.43 87.94 33.12 175.11 87.94 261.91h232.6zm0-317.49v-261.9H383.72c-57.1 88.69-89.08 175.87-96.31 261.9H606.8zm0-317.48V95.92c-74.61 65.1-135.9 129.43-184.25 193.39H606.8z" fill-rule="nonzero"/></svg>